<svg width="14" height="10" viewBox="0 0 14 10" fill="none" xmlns="http://www.w3.org/2000/svg">
<path d="M8.7 4.704C8.7 2.088 7.02 0.252 4.608 0.252C2.208 0.252 0.516 2.1 0.516 4.704C0.516 7.308 2.196 9.144 4.608 9.144C7.008 9.144 8.7 7.308 8.7 4.704ZM7.812 4.704C7.812 6.84 6.504 8.316 4.608 8.316C2.712 8.316 1.416 6.852 1.416 4.704C1.416 2.556 2.712 1.092 4.608 1.092C6.504 1.092 7.812 2.556 7.812 4.704ZM13.1227 3.12C12.9187 3.072 12.7627 3.06 12.5827 3.06C11.7667 3.06 11.1547 3.468 10.9267 4.092L10.8667 3.192H10.0867V9H10.9147V5.688C10.9147 4.584 11.5987 3.864 12.6667 3.864H13.1227V3.12Z" fill="#383838"/>
</svg>
